# xmcd
# 
# Track frame offsets:
#     150
#     15736
#     35273
#     52108
#     68137
#     86102
#     104352
#     119107
#     135423
#     150618
#     167529
# 
# Disc length: 2414
# 
# Revision: 5
# Processed by: cddbd v1.5.2PL0 Copyright (c) Steve Scherf et al.
# Submitted via: fre:ac v1.1beta2
# 
DISCID=90096c0b
DTITLE=Tamara - Gracias
DYEAR=2000
DGENRE=Pop
TTITLE0=Ayúdame Dios Mío
TTITLE1=Si Dios Me Quita La Vida
TTITLE2=Celos
TTITLE3=Cuando Me Pierdas
TTITLE4=Si Tú Te Vas
TTITLE5=Un Mundo Raro
TTITLE6=Inconsolable
TTITLE7=Si Nos Dejan
TTITLE8=En Tu Pelo
TTITLE9=Gracias
TTITLE10=Una Limosna
EXTD=
EXTT0=
EXTT1=
EXTT2=
EXTT3=
EXTT4=
EXTT5=
EXTT6=
EXTT7=
EXTT8=
EXTT9=
EXTT10=
PLAYORDER=
